# xmcd CD database file
#
# Track frame offsets:
#	150
#	14390
#	30455
#	46080
#	61150
#	79682
#	91982
#	104257
#	130355
#	141215
#	153125
#	168320
#	181160
#	197175
#	208835
#	219867
#
# Disc length: 3044 seconds
#
# Revision: 1
# Processed by: cddbd v1.5.2PL0 Copyright (c) Steve Scherf et al.
# Submitted via: CDex 1.70beta2
#
DISCID=cd0be210
DTITLE=Boxcar Willie - Truck Drivin' Son Of A Gun
DYEAR=1998
DGENRE=Folk
TTITLE0=Truck Driving Man
TTITLE1=Freightline Fever
TTITLE2=Phantom 309
TTITLE3=White Line Fever
TTITLE4=Convoy
TTITLE5=How Fast Them Trucks Will Go
TTITLE6=Trucker's Prayer
TTITLE7=Teddy Bear
TTITLE8=Six Days On The Road
TTITLE9=Truck Drivin' Son Of A Gun
TTITLE10=Girl On A Billboard
TTITLE11=North To Alaska
TTITLE12=Forty Acres
TTITLE13=Dixie
TTITLE14=Yankee Doodle
TTITLE15=Battle Hymn Of The Republic
EXTD=YEAR: 1998
EXTT0=
EXTT1=
EXTT2=
EXTT3=
EXTT4=
EXTT5=
EXTT6=
EXTT7=
EXTT8=
EXTT9=
EXTT10=
EXTT11=
EXTT12=
EXTT13=
EXTT14=
EXTT15=
PLAYORDER=
